<svg xmlns="http://www.w3.org/2000/svg" width="43.458" height="42.399" viewBox="0 0 43.458 42.399">
  <g id="Grupo_4584" data-name="Grupo 4584" transform="translate(-170 114)">
    <g id="Icon_user" transform="translate(170 -114)">
      <g id="Icon_user-2" data-name="Icon_user">
        <path id="Shape" d="M8.712,18.832C3.908,18.832,0,14.607,0,9.415S3.908,0,8.712,0s8.714,4.223,8.714,9.415S13.518,18.832,8.712,18.832Zm0-14.124A4.547,4.547,0,0,0,4.356,9.415a4.548,4.548,0,0,0,4.356,4.71,4.549,4.549,0,0,0,4.358-4.71A4.548,4.548,0,0,0,8.712,4.707Z" transform="translate(13.856)" fill="#2d538a"/>
        <path id="Path" d="M4.346,18.785C4.346,13.225,9.71,4.7,21.729,4.7s17.383,8.529,17.383,14.088a2.179,2.179,0,1,0,4.346,0C43.458,10.255,35.785,0,21.729,0S0,10.255,0,18.785a2.266,2.266,0,0,0,2.173,2.348A2.266,2.266,0,0,0,4.346,18.785Z" transform="translate(0 21.266)" fill="#2d538a"/>
      </g>
    </g>
  </g>
</svg>
